<svg xmlns="http://www.w3.org/2000/svg" xmlns:xlink="http://www.w3.org/1999/xlink" viewBox="0 0 114.62 62"><defs><style>.cls-1,.cls-2{fill-rule:evenodd;}.cls-1{fill:url(#linear-gradient);}.cls-2{fill:url(#linear-gradient-3);}.cls-3{fill:url(#linear-gradient-5);}</style><linearGradient id="linear-gradient" x1="-0.23" y1="48.83" x2="113.97" y2="48.83" gradientUnits="userSpaceOnUse"><stop offset="0.06" stop-color="#aa1119"/><stop offset="0.28" stop-color="#c81a17"/><stop offset="0.54" stop-color="#e72415"/><stop offset="0.69" stop-color="#e82d13"/><stop offset="0.93" stop-color="#e9450f"/><stop offset="1" stop-color="#ea4d0d"/></linearGradient><linearGradient id="linear-gradient-3" x1="-0.23" y1="48.83" x2="113.97" y2="48.83" xlink:href="#linear-gradient"/><linearGradient id="linear-gradient-5" x1="-0.23" y1="31" x2="113.97" y2="31" xlink:href="#linear-gradient"/></defs><title>资源 12</title><g id="图层_2" data-name="图层 2"><g id="图层_1-2" data-name="图层 1"><path class="cls-1" d="M48.87,62,62.38,35.67H68L66.88,62H61.24l.25-3.53H56.2L54.46,62Zm9.67-9h3.29l1-9.3Z"/><path class="cls-1" d="M0,62,13.48,35.67h5.64L18,62H12.34l.26-3.53H7.29L5.57,62Zm9.65-9h3.29l1-9.3Z"/><polygon class="cls-2" points="25.91 35.66 30.89 35.66 32.98 49.77 36.91 35.66 42.63 35.66 35.29 62 29.71 62 27.78 48.9 24.13 62 18.55 62 25.91 35.66"/><polygon class="cls-2" points="43.92 35.66 59.84 35.66 58.25 41.31 53.22 41.31 47.44 62 41.88 62 47.64 41.31 42.34 41.31 43.92 35.66"/><path class="cls-3" d="M114.62,46.46A99.07,99.07,0,0,0,67.53,10.6a149.32,149.32,0,0,1,33,4.84l-7.42-6.3A139.27,139.27,0,0,0,43.22,0,138.88,138.88,0,0,0,12.63,3.36L0,12.05c1.6,0,4-.1,5.61-.1A120.13,120.13,0,0,1,103.31,62Z"/></g></g></svg>