<svg xmlns="http://www.w3.org/2000/svg" xmlns:xlink="http://www.w3.org/1999/xlink" viewBox="0 0 226.02 86.65"><defs><style>.cls-1{fill:url(#linear-gradient);}.cls-2{fill:url(#linear-gradient-2);}.cls-3{fill:url(#linear-gradient-3);}.cls-4{fill:url(#linear-gradient-4);}.cls-5{fill:url(#linear-gradient-5);}.cls-6{fill:url(#linear-gradient-6);}.cls-7{fill:url(#linear-gradient-7);}.cls-8{fill:url(#linear-gradient-8);}.cls-9{fill:url(#linear-gradient-9);}.cls-10{fill:url(#linear-gradient-10);}.cls-11{fill:url(#linear-gradient-11);}</style><linearGradient id="linear-gradient" x1="-0.24" y1="13.65" x2="226.15" y2="13.65" gradientUnits="userSpaceOnUse"><stop offset="0.06" stop-color="#ab1119"/><stop offset="0.27" stop-color="#c71b18"/><stop offset="0.54" stop-color="#e62516"/><stop offset="0.7" stop-color="#e72e14"/><stop offset="0.95" stop-color="#e9460e"/><stop offset="1" stop-color="#e94c0d"/></linearGradient><linearGradient id="linear-gradient-2" x1="-0.24" y1="31.65" x2="226.15" y2="31.65" xlink:href="#linear-gradient"/><linearGradient id="linear-gradient-3" x1="-0.24" y1="31.35" x2="226.15" y2="31.35" xlink:href="#linear-gradient"/><linearGradient id="linear-gradient-4" x1="-0.24" y1="27.01" x2="226.15" y2="27.01" xlink:href="#linear-gradient"/><linearGradient id="linear-gradient-5" x1="-0.24" y1="28.04" x2="226.15" y2="28.04" xlink:href="#linear-gradient"/><linearGradient id="linear-gradient-6" x1="-0.24" y1="64.03" x2="226.15" y2="64.03" xlink:href="#linear-gradient"/><linearGradient id="linear-gradient-7" x1="-0.24" y1="63.08" x2="226.15" y2="63.08" xlink:href="#linear-gradient"/><linearGradient id="linear-gradient-8" x1="-0.24" y1="58.21" x2="226.15" y2="58.21" xlink:href="#linear-gradient"/><linearGradient id="linear-gradient-9" x1="-0.24" y1="51.01" x2="226.15" y2="51.01" xlink:href="#linear-gradient"/><linearGradient id="linear-gradient-10" x1="-0.24" y1="52.74" x2="226.15" y2="52.74" xlink:href="#linear-gradient"/><linearGradient id="linear-gradient-11" x1="-0.24" y1="49.8" x2="226.15" y2="49.8" xlink:href="#linear-gradient"/></defs><title>资源 13</title><g id="图层_2" data-name="图层 2"><g id="图层_1-2" data-name="图层 1"><path class="cls-1" d="M111.7,1.48l-5.55,3.84c.7,0,1.77-.06,2.47-.06a52.88,52.88,0,0,1,43,22l5-6.84A43.61,43.61,0,0,0,135.87,4.67,66.17,66.17,0,0,1,150.38,6.8L147.11,4A61.85,61.85,0,0,0,111.7,1.48"/><path class="cls-2" d="M10.07,33.55,8.86,36.63V52.48L0,54V13.57L8.86,12V23l-.17,3.18L9.36,24l4.92-12.9L24.41,9.26,17,25.81l.61,1.57,7.26,22.28-10,1.76L10.46,35.73Z"/><path class="cls-3" d="M25.19,38.69V27.62c0-7.36,4.26-12.11,10.85-13.27,7.64-1.34,11,2.16,11,9.36v7.92L33.93,34v3.37c0,2.87.67,3.54,2.27,3.25s2-1.53,2-4.17v-.9l8.85-1.56v1.12c0,6.47-1.93,11.53-10.9,13.22C28.51,49.74,25.19,46.45,25.19,38.69ZM33.93,28.5l4.54-.8V25.33c0-2.69-.5-3.79-2.21-3.48s-2.33,1.64-2.33,4.45Z"/><path class="cls-4" d="M49.77,34.36V23.29C49.77,15.92,54,11.18,60.62,10c7.63-1.35,11,2.16,11,9.36V27.3L58.51,29.61V33c0,2.86.67,3.53,2.27,3.25s2-1.53,2-4.17v-.9l8.86-1.56v1.12c0,6.46-1.94,11.53-10.9,13.22C53.09,45.41,49.77,42.12,49.77,34.36Zm8.74-10.2,4.54-.8V21c0-2.7-.5-3.79-2.21-3.49S58.51,19.16,58.51,22Z"/><path class="cls-5" d="M83.26,35.26V49.53L74.4,51.09V8l7.47-1.32,1,4.14c.83-3.35,2.72-5.2,5.71-5.72,5.2-.92,7.52,2.1,7.52,11.26v8.82c0,9.22-2.76,12.75-7.58,13.65C85.41,39.43,83.92,38.12,83.26,35.26Zm4-7.69V17.4c0-3.49-.61-4.16-2-3.91s-2,1.36-2,4.23V28.57c0,2.53.55,3.5,2,3.24S87.3,30.55,87.3,27.57Z"/><path class="cls-6" d="M95.7,85.17l-8.4,1.48V46.23L95,44.88l5.86,14.68,6-16.78,7.74-1.36V81.84l-8.46,1.49V63.17l.61-4-.17.65L102,73l-1.83.33L95.37,62l-.06-.33.39,3.81Z"/><path class="cls-7" d="M117.6,70.7V59.42c0-7.75,4-12.1,10.83-13.31,7.14-1.26,10.9,1.78,10.9,9.47V66.87c0,7.8-3.54,11.85-10.9,13.15S117.6,78.5,117.6,70.7Zm12.88-2.5v-11c0-2.75-.39-3.64-2-3.35s-2.05,1.31-2.05,4.06v11c0,2.58.72,3.35,2.05,3.12S130.48,70.79,130.48,68.2Z"/><path class="cls-8" d="M147.34,76.07l-7.57-31.51,9-1.58,2.54,14.26.44,6.49.44-6.65,2.49-15.14,9-1.58-7.52,34.17Z"/><path class="cls-9" d="M164.76,34.71c0-3.6,1.33-4.78,5-5.43s5,.08,5,3.67-1.44,4.8-5,5.43C166,39,164.76,38.36,164.76,34.71Zm.33,5.61c.77.48,2.27.55,4.65.13s3.87-1.07,4.64-1.83V71.3l-9.29,1.64Z"/><path class="cls-10" d="M186.71,69.12l-9.12,1.61V37.89l7.46-1.32.94,3.82a7.72,7.72,0,0,1,6.25-5.48c4.92-.86,7.24,1.76,7.24,8.21V66.87l-9.07,1.6V46.35c0-2-.33-3.08-1.77-2.83s-1.93,1.52-1.93,3.71Z"/><path class="cls-11" d="M212.92,75.51c-8.24,1.45-11.17-.39-11.17-3.82,0-2.3,1.55-4.48,4.86-5.91-3-.13-4.53-1.61-4.53-4.59s1.71-5.13,5.09-6.56c-3-.48-4.43-2.59-4.43-6.69v-5.5c0-6.07,3.38-9,8.79-10.76l.78-.25c2.87-.9,3.59-1.53,3.59-4.28v-2l9.07-1.6v.17c0,4.94-1.77,6.83-7.3,7.86,4.48-.17,6.64,2.2,6.64,6.8v6c0,6.57-3.32,10.07-10.73,11.38l-1.66.29c-2.27.4-2.76.94-2.76,1.56s.49.81,2.87.39l3.71-.65c6.74-1.19,10.28.82,10.28,6.32v.11c0,5.28-4,10.15-12.94,11.72Zm1-7c2.27-.4,3.71-1.66,3.71-2.67v-.23c0-.84-.83-1.25-2.71-.92l-2.1.37c-1.55.27-3.05,1.43-3.05,2.39v.22c0,.79,1,1.4,3.43,1Zm1.72-21.91V39.44c0-1.58-.72-2.29-2-2.07s-2,1.08-2,2.77v7.13c0,1.68.83,2.21,2,2A2.54,2.54,0,0,0,215.63,46.57Z"/></g></g></svg>